<svg width="100%" viewBox="0 0 680 200" role="img" xmlns="http://www.w3.org/2000/svg">
<title>Gaurav Kashav GitHub Profile Banner</title>
<desc>Dark-themed banner with name, title, and WordPress tech icons</desc>
<defs>
  <clipPath id="clip">
    <rect width="680" height="200" rx="10"/>
  </clipPath>
</defs>

<rect width="680" height="200" rx="10" fill="#0d1117"/>

<circle cx="580" cy="-20" r="160" fill="#1a2332" opacity="0.8"/>
<circle cx="650" cy="180" r="100" fill="#1a2332" opacity="0.5"/>
<circle cx="100" cy="190" r="120" fill="#1a2332" opacity="0.4"/>

<rect x="0" y="0" width="4" height="200" fill="#2ea043" rx="2"/>

<circle cx="42" cy="158" r="30" fill="#21262d" opacity="0.7"/>
<circle cx="42" cy="158" r="22" fill="#2ea043" opacity="0.15"/>
<text x="42" y="164" text-anchor="middle" font-family="monospace" font-size="18" fill="#2ea043">WP</text>

<circle cx="94" cy="170" r="20" fill="#21262d" opacity="0.7"/>
<text x="94" y="176" text-anchor="middle" font-family="monospace" font-size="13" fill="#58a6ff">PHP</text>

<circle cx="140" cy="162" r="16" fill="#21262d" opacity="0.7"/>
<text x="140" y="167" text-anchor="middle" font-family="monospace" font-size="11" fill="#f0db4f">JS</text>

<text x="174" y="46" font-family="Georgia, serif" font-size="32" font-weight="700" fill="#c9d1d9" letter-spacing="-0.5">Gaurav Kashav</text>
<text x="176" y="72" font-family="monospace" font-size="14" fill="#2ea043">WordPress Frontend &amp; Backend Developer</text>
<text x="176" y="95" font-family="monospace" font-size="12" fill="#8b949e">10+ Years  ·  Custom Themes  ·  WooCommerce  ·  REST APIs</text>

<line x1="174" y1="108" x2="560" y2="108" stroke="#30363d" stroke-width="1"/>

<rect x="174" y="120" width="86" height="22" rx="11" fill="#2ea04320"/>
<text x="217" y="135" text-anchor="middle" font-family="monospace" font-size="11" fill="#2ea043">WordPress</text>

<rect x="268" y="120" width="46" height="22" rx="11" fill="#58a6ff20"/>
<text x="291" y="135" text-anchor="middle" font-family="monospace" font-size="11" fill="#58a6ff">PHP</text>

<rect x="322" y="120" width="96" height="22" rx="11" fill="#f0db4f20"/>
<text x="370" y="135" text-anchor="middle" font-family="monospace" font-size="11" fill="#f0db4f">JavaScript</text>

<rect x="426" y="120" width="96" height="22" rx="11" fill="#9c5bf520"/>
<text x="474" y="135" text-anchor="middle" font-family="monospace" font-size="11" fill="#9c5bf5">WooCommerce</text>

<rect x="174" y="150" width="52" height="22" rx="11" fill="#58a6ff20"/>
<text x="200" y="165" text-anchor="middle" font-family="monospace" font-size="11" fill="#58a6ff">MySQL</text>

<rect x="234" y="150" width="82" height="22" rx="11" fill="#2ea04320"/>
<text x="275" y="165" text-anchor="middle" font-family="monospace" font-size="11" fill="#2ea043">REST APIs</text>

<rect x="324" y="150" width="76" height="22" rx="11" fill="#f0883e20"/>
<text x="362" y="165" text-anchor="middle" font-family="monospace" font-size="11" fill="#f0883e">Elementor</text>

<text x="636" y="100" text-anchor="middle" font-family="monospace" font-size="10" fill="#30363d">gauravkashav494</text>

<text x="610" y="30" font-family="monospace" font-size="36" fill="#21262d" font-weight="700">&lt;/&gt;</text>
</svg>
